<?xml version="1.0" encoding="UTF-8"?>
<svg enable-background="new 0 0 695.963 470.07" viewBox="0 0 695.963 470.07" xmlns="http://www.w3.org/2000/svg">
 <g transform="translate(-183.13 -370.09)">
  <path d="m680.82 673.19c0.024 82.702-67.013 149.76-149.71 149.76s-149.74-67.056-149.71-149.76c-0.025-82.702 67.012-149.76 149.71-149.76s149.74 67.056 149.71 149.76z" fill="#794522" stroke="#010101" stroke-linecap="round" stroke-linejoin="round" stroke-width="6"/>
  <path d="m507.161,745.297c-8.482,8.43 2.326,39.791 7.615,40.619 .566-8.409 2.96-12.866 9.145-19.614 .363,10.06 5.273,22.746 13.799,26.562-2.828-7.944-3.468-17.241 2.882-27.796 4.598,8.204 7.899,14.628 17.485,15.836-4.831-9.832-.629-27.697.11-35.341" fill="#794522" stroke="#010101" stroke-linecap="round" stroke-linejoin="round" stroke-width="4"/>
  <path d="m642.971,607.522c0-5.553-.221-11.019-.661-16.38-.296-9.03-1.64-17.79-3.915-26.162-3.764-13.849-10.088-26.617-18.4-37.783 5.332-3.255 10.117-8.715 13.159-15.701 6.284-14.431 2.923-45.314 2.923-45.314s-35.147,14.116-41.431,28.547c-.906,2.082-1.603,4.184-2.108,6.272-16.757-11.26-36.692-18.058-58.161-18.688-1.082-.022-2.167-.041-3.267-.041l-.678-.004c-22.454.131-43.327,7.001-60.759,18.704-.506-2.079-1.199-4.171-2.102-6.243-6.283-14.432-41.432-28.547-41.432-28.547s-3.36,30.883 2.924,45.314c3.036,6.973 7.809,12.425 13.128,15.682-8.325,11.179-14.657,23.965-18.422,37.834-2.366,8.717-3.729,17.855-3.942,27.281-.38,4.993-.582,10.071-.582,15.228 0,30.135 14.564,60.525 33.906,85.234-.317,2.117-.494,4.268-.494,6.447 0,32.309 35.818,58.5 80,58.5s80-26.191 80-58.5c0-3.154-.352-6.248-1.009-9.268 18.075-24.178 31.323-53.414 31.323-82.412z" fill="#794522" stroke="#010101" stroke-linecap="round" stroke-linejoin="round" stroke-width="6"/>
  <path d="m459.56 497.75c4.021 9.236 1.765 19.125-5.041 22.089s-15.583-2.122-19.604-11.358-2.88-32.889-2.88-32.889 23.503 12.921 27.525 22.158z" fill="#fbc8b4"/>
  <path d="m602.66 497.75c-4.021 9.236-1.765 19.125 5.041 22.089s15.583-2.122 19.604-11.358 2.88-32.889 2.88-32.889-23.503 12.921-27.525 22.158z" fill="#fbc8b4"/>
  <path d="m306.09 398.8c17.393 13.709-18.531 27.054-9.997 32.641 6.357 4.16 20.579-11.899 28.741-5.034 11.642 9.793-5.97 21.654-0.292 27.344 6.067 6.078 19.613-2.612 24.637 2.555 5.86 6.029-1.455 22.01 5.901 26.303 9.069 5.293 8.086-6.539 17.899-4.411 23.62 5.123 42.771 33.761 45.178 34.94 7.772 3.808 51.806 14.702 49.74 15.956-12.501 7.584-16.938 10.966-23.267 21.26-0.951 1.547-56.394-7.839-58.086-7.074-29.472 13.334-72.822 11.844-114.91-6.875-62.782-27.924-98.97-83.615-80.83-124.39 11.633-26.144 42.773-39.807 80.173-38.887 20.929 0.517-25.912 20.53-3.386 30.549 14.615 6.502 27.114-13.846 38.495-4.876z" fill="#502e18" stroke="#010101" stroke-linejoin="round" stroke-width="6"/>
  <path d="m756.14 398.8c-17.391 13.709 18.528 27.054 9.995 32.641-6.355 4.16-20.576-11.899-28.737-5.034-11.641 9.793 5.97 21.654 0.293 27.344-6.066 6.078-19.61-2.612-24.634 2.555-5.859 6.029 1.454 22.01-5.9 26.303-9.067 5.293-8.085-6.539-17.896-4.411-23.617 5.123-42.766 33.761-45.172 34.94-7.771 3.808-51.8 14.702-49.733 15.956 12.5 7.584 16.936 10.966 23.264 21.26 0.951 1.547 56.387-7.839 58.079-7.074 29.468 13.334 72.812 11.844 114.89-6.875 62.773-27.924 98.958-83.615 80.819-124.39-11.632-26.144-42.768-39.807-80.163-38.887-20.926 0.517 25.908 20.53 3.386 30.549-14.616 6.502-27.112-13.846-38.492-4.876z" fill="#502e18" stroke="#010101" stroke-linejoin="round" stroke-width="6"/>
  <path d="m598.12 576.15c6e-3 17.111-13.864 30.984-30.976 30.984s-30.979-13.874-30.974-30.984c-5e-3 -17.111 13.864-30.984 30.974-30.984s30.982 13.873 30.976 30.984z" fill="#fff" stroke="#010101" stroke-linecap="round" stroke-linejoin="round" stroke-width="6"/>
  <path d="m570.59 581.61c3e-3 5.704-4.621 10.328-10.326 10.328-5.702 0-10.325-4.625-10.324-10.328s4.622-10.328 10.324-10.328c5.705 0 10.329 4.624 10.326 10.328z" fill="#010101"/>
  <path d="m526.05 576.15c6e-3 17.111-13.864 30.984-30.975 30.984s-30.98-13.874-30.976-30.984c-5e-3 -17.111 13.864-30.984 30.976-30.984s30.981 13.873 30.975 30.984z" fill="#fff" stroke="#010101" stroke-linecap="round" stroke-linejoin="round" stroke-width="6"/>
  <path d="m513.14 581.61c0 5.704-4.622 10.328-10.326 10.328s-10.326-4.625-10.325-10.328 4.622-10.328 10.325-10.328 10.326 4.624 10.326 10.328z" fill="#010101"/>
  <path d="m541.36 824.32c0 12.426 20.045 12.823 44.742 12.823s44.742 0.948 44.742-12.823c0-24.214-20.045-43.866-44.742-43.866s-44.742 19.652-44.742 43.866z" fill="#502e18" stroke="#010101" stroke-linecap="round" stroke-linejoin="round" stroke-width="6"/>
  <path d="m603.31 836.32c0-22.37-12.907-36.137-12.907-36.137s5.163 18.93 4.302 36.137h8.605z" fill="#010101" fill-opacity=".3137" stroke="#010101" stroke-linejoin="round" stroke-width="6"/>
  <path d="m520.86 824.32c0 12.426-20.044 12.823-44.742 12.823s-44.741 0.948-44.741-12.823c0-24.214 20.044-43.866 44.741-43.866s44.742 19.652 44.742 43.866z" fill="#502e18" stroke="#010101" stroke-linecap="round" stroke-linejoin="round" stroke-width="6"/>
  <path d="m458.91 836.32c0-22.37 12.906-36.137 12.906-36.137s-5.163 18.93-4.303 36.137h-8.603z" fill="#010101" fill-opacity=".3137" stroke="#010101" stroke-linejoin="round" stroke-width="6"/>
  <path d="m562.43 735.85c-4.387 7.604-12.439 11.176-17.981 7.974s-6.477-11.957-2.087-19.559 12.439-11.172 17.981-7.973 6.477 11.959 2.087 19.558z" fill="#010101"/>
  <path d="m499.79 735.85c4.388 7.604 12.438 11.176 17.981 7.974s6.478-11.957 2.086-19.559-12.438-11.172-17.981-7.973-6.476 11.959-2.086 19.558z" fill="#010101"/>
 </g>
</svg>
